<svg width="24" height="23" viewBox="0 0 24 23" fill="none" xmlns="http://www.w3.org/2000/svg">
<path d="M19.996 19.418H19.1953V20.1742H19.996V19.418Z" fill="#F2A317"/>
<path d="M20.8007 17.1719H20V17.9281H20.8007V17.1719Z" fill="#F2A317"/>
<path d="M4.78509 9.69922H3.98438V10.4555H4.78509V9.69922Z" fill="#FAF1CE"/>
<path d="M23.2024 7.47266H22.4017H21.6009H20.8002V8.20665V8.96288V9.69687V10.4531V11.2093V11.9433V12.6996V13.4336V14.1898V14.946V15.68H19.9995V16.4362V17.1702H20.8002V17.9265H19.9995V17.1702H19.1988V17.9265H18.3981V18.6827H17.5973V19.4167V20.1729H16.7966H15.9959V20.9069H15.1952V21.6632H14.3945H13.5938V22.4194H14.3945H15.1952H15.9959H16.7966V21.6632H17.5973H18.3981V20.9069H19.1988V20.1729V19.4167H19.9995V20.1729H20.8002V19.4167V18.6827H21.6009V17.9265H22.4017V17.1702V16.4362H23.2024V15.68V14.946H24.0031V14.1898V13.4336V12.6996V11.9433V11.2093V10.4531V9.69687V8.96288V8.20665V7.47266H23.2024Z" fill="#F2A317"/>
<path d="M15.1952 21.6406V21.6629H13.5938V22.4191H16.7966V21.6629H18.3981V21.6406H15.1952Z" fill="#1D1D1B"/>
<path d="M19.996 5.22656H19.1953V5.9828H19.996V5.22656Z" fill="white"/>
<path d="M19.1978 7.47527V5.22881H18.3971V4.47258H17.5963V3.71634H16.7956V2.9601H15.9949V2.20387H15.1942V1.44764H13.5927V0.691406H7.187V1.44764H5.58556V2.20387H4.78484V2.9601H3.98412V3.71634H3.1834V4.47258H2.38269V5.9628H1.58197V7.45303H0.78125V14.9264H1.58197V16.4166H2.38269V17.9068H3.1834V18.6631H3.98412V19.4193H4.78484V20.1756H5.58556V20.9318H7.187V21.688H13.5927V20.9318H15.1942V20.1756H15.9949V19.4193H16.7956V18.6631H17.5963V17.9068H18.3971V17.1506H19.1978V15.6604H19.9985V7.43078H19.1978V7.47527ZM3.98412 8.20926V6.71904H4.78484V5.9628H5.58556V5.20656H6.38628V4.45033H7.187V3.6941H13.5927V4.45033H14.3935V5.20656H15.1942V5.9628H15.9949V6.71904H16.7956V8.20926H17.5963V14.1924H16.7956V15.6826H15.9949V16.4389H15.1942V17.1951H14.3935V17.9513H13.5927V18.7076H7.187V17.9513H6.38628V17.1951H5.58556V16.4389H4.78484V15.6826H3.98412V14.1924H3.1834V8.20926H3.98412Z" fill="#FDCD00"/>
<path d="M5.58978 7.47535H4.78906V8.20934V8.96557V9.69957V10.4558V11.212V11.946V12.7023V13.4362H5.58978V14.1925V14.9487H6.3905V15.6827H7.19122V16.4389H7.99193H8.79265V17.1729H9.59337H10.3941H11.1948H11.9955H12.7962V16.4389H13.597H14.3977V15.6827H15.1984V14.9487H15.9991V14.1925V13.4362H16.7998V12.7023V11.946V11.212V10.4558V9.69957V8.96557H15.9991V8.20934V7.47535V6.71912H15.1984V5.96288H14.3977V5.22889H13.597H12.7962V4.47266H11.9955H11.1948H10.3941H9.59337H8.79265H7.99193V5.22889H7.19122H6.3905V5.96288H5.58978V6.71912V7.47535Z" fill="#FDCD00"/>
<path d="M22.4022 5.22851V4.47228V3.73828H21.6014V4.47228H20.8007H20V5.22851V5.9625V6.71874H20.8007V5.9625H21.6014H22.4022V6.71874V7.47497H23.2029V6.71874V5.9625V5.22851H22.4022Z" fill="#F2A317"/>
<path d="M20.8002 2.98045V2.22422H19.9995H19.1988V1.49023H18.3981V0.733992H17.5973H16.7966V0H15.9959H15.1952H14.3945H13.5938V0.733992H14.3945H15.1952V1.49023H15.9959V2.22422H16.7966V2.98045H17.5973V3.73668H18.3981H19.1988H19.9995H20.8002H21.6009V2.98045H20.8002Z" fill="#F2A317"/>
<path d="M22.4022 5.22851V4.47228V3.73828H21.6014V4.47228H20.8007H20V5.22851V5.9625V6.71874H20.8007V5.9625H21.6014H22.4022V6.71874V7.47497H23.2029V6.71874V5.9625V5.22851H22.4022Z" fill="#F2A317"/>
<path d="M22.4023 5.22851V4.47228V3.73828H21.6016V4.47228V5.22851H22.4023V5.9625V6.71874V7.47497H23.203V6.71874V5.9625V5.22851H22.4023Z" fill="#1D1D1B"/>
<path d="M19.1992 1.48828H18.3984V2.24451H19.1992V1.48828Z" fill="#1D1D1B"/>
<path d="M19.1953 2.97889H19.996H20.7967V2.22266H19.996H19.1953V2.97889Z" fill="#1D1D1B"/>
<path d="M17.5898 1.49061H18.3905V0.734375H17.5898H16.7891V1.49061H17.5898Z" fill="#1D1D1B"/>
<path d="M21.5976 2.98047H20.7969V3.7367H21.5976V2.98047Z" fill="#1D1D1B"/>
<path d="M14.3945 0.733992H15.1952H15.9959H16.7966V0H15.9959H15.1952H14.3945H13.5938V0.733992H14.3945Z" fill="#1D1D1B"/>
<path d="M19.996 17.1719H19.1953V17.9281H19.996V17.1719Z" fill="#1D1D1B"/>
<path d="M23.1992 7.47266H22.3984H23.1992V8.20665V8.96288V9.69687V10.4531V11.2093V11.9433V12.6996V13.4336V14.1898V14.946H23.9999V14.1898V13.4336V12.6996V11.9433V11.2093V10.4531V9.69687V8.96288V8.20665V7.47266H23.1992Z" fill="#1D1D1B"/>
<path d="M20 18.6836V19.4176V20.1738H20.8007V19.4176V18.6836H20Z" fill="#1D1D1B"/>
<path d="M21.5976 17.9258H20.7969V18.682H21.5976V17.9258Z" fill="#1D1D1B"/>
<path d="M22.3945 14.9453V15.6793V16.4355H21.5938V17.1695V17.9258H22.3945V17.1695V16.4355H23.1952V15.6793V14.9453H22.3945Z" fill="#1D1D1B"/>
<path d="M16.7929 21.6641H15.9922V22.4203H16.7929V21.6641Z" fill="#1D1D1B"/>
<path d="M19.1992 20.1742V19.418H18.3984V20.1742V20.9082H19.1992V20.1742Z" fill="#1D1D1B"/>
<path d="M18.3945 20.9062H17.5938V21.6625H18.3945V20.9062Z" fill="#1D1D1B"/>
<path d="M13.5932 20.9062V21.6625H12.7925H11.9918H11.1911H10.3904H9.58966H8.78894H7.98822H7.1875V22.4187H7.98822H8.78894H9.58966H10.3904H11.1911H11.9918H12.7925H13.5932V21.6625H14.394H15.1947V20.9062H14.394H13.5932Z" fill="#1D1D1B"/>
<path d="M15.996 20.1719H15.1953V20.9281H15.996V20.1719Z" fill="#1D1D1B"/>
<path d="M16.7929 19.4176H15.9922V20.1738H16.7929H17.5936V19.4176V18.6836H16.7929V19.4176Z" fill="#1D1D1B"/>
<path d="M18.3945 17.9258H17.5938V18.682H18.3945V17.9258Z" fill="#1D1D1B"/>
<path d="M19.1913 17.1719H18.3906V17.9281H19.1913V17.1719Z" fill="#1D1D1B"/>
<path d="M19.1953 16.4359V17.1699H19.996V16.4359V15.6797H19.1953V16.4359Z" fill="#1D1D1B"/>
<path d="M19.9922 8.20703V8.96326V9.69726V10.4535V11.2097V11.9437V12.7V13.4339V14.1902V14.9464V15.6804H20.7929V14.9464V14.1902V13.4339V12.7V11.9437V11.2097V10.4535V9.69726V8.96326V8.20703H19.9922Z" fill="#1D1D1B"/>
<path d="M19.1953 6.71718V7.47341H19.996V6.71718V5.96094H19.1953V6.71718Z" fill="#1D1D1B"/>
<path d="M19.1913 4.47266H18.3906V5.22889H19.1913V4.47266Z" fill="#1D1D1B"/>
<path d="M15.1913 16.4375H14.3906V17.1937H15.1913V16.4375Z" fill="#1D1D1B"/>
<path d="M15.996 8.20897V8.9652H16.7967V9.6992V10.4554V11.2117V11.9457V12.7019V13.4359H15.996V14.1921V14.9484H15.1953V15.6823V16.4386H15.996V15.6823H16.7967V14.9484V14.1921H17.5975V13.4359V12.7019V11.9457V11.2117V10.4554V9.6992V8.9652V8.20897H16.7967V7.47498V6.71875H15.996V7.47498V8.20897Z" fill="#1D1D1B"/>
<path d="M15.996 5.96094H15.1953V6.71718H15.996V5.96094Z" fill="#1D1D1B"/>
<path d="M15.1913 5.22656H14.3906V5.9828H15.1913V5.22656Z" fill="#1D1D1B"/>
<path d="M18.3945 3.73828H17.5938V4.49452H18.3945V3.73828Z" fill="#1D1D1B"/>
<path d="M17.5898 2.98047H16.7891V3.7367H17.5898V2.98047Z" fill="#1D1D1B"/>
<path d="M16.7929 2.22266H15.9922V2.97889H16.7929V2.22266Z" fill="#1D1D1B"/>
<path d="M15.996 1.48828H15.1953V2.24451H15.996V1.48828Z" fill="#1D1D1B"/>
<path d="M13.5938 1.49061H14.3945H15.1952V0.734375H14.3945H13.5938V1.49061Z" fill="#1D1D1B"/>
<path d="M6.38666 20.9062H5.58594V21.6625H6.38666H7.18737V20.9062H6.38666Z" fill="#1D1D1B"/>
<path d="M5.58197 20.1719H4.78125V20.9281H5.58197V20.1719Z" fill="#1D1D1B"/>
<path d="M3.98041 19.4176V18.6836H3.17969V19.4176V20.1738H3.98041H4.78113V19.4176H3.98041Z" fill="#1D1D1B"/>
<path d="M3.18353 17.9258H2.38281V18.682H3.18353V17.9258Z" fill="#1D1D1B"/>
<path d="M7.98425 18.6843H8.78497H9.58569H10.3864H11.1871H11.9878H12.7886H13.5893V17.9281H14.39V17.1719H13.5893H12.7886V17.9281H11.9878H11.1871H10.3864H9.58569H8.78497H7.98425V17.1719H7.18353H6.38281V17.9281H7.18353V18.6843H7.98425Z" fill="#1D1D1B"/>
<path d="M6.38666 16.4375H5.58594V17.1937H6.38666V16.4375Z" fill="#1D1D1B"/>
<path d="M2.37884 16.4375H1.57812V17.1715V17.9277H2.37884V17.1715V16.4375Z" fill="#1D1D1B"/>
<path d="M1.58316 14.9453H0.804688V15.6793V16.4355H1.58316V15.6793V14.9453Z" fill="#1D1D1B"/>
<path d="M0.800718 13.4339V12.7V11.9437V11.2097V10.4535V9.69726V8.96326V8.20703H0V8.96326V9.69726V10.4535V11.2097V11.9437V12.7V13.4339V14.1902H0.800718V13.4339Z" fill="#1D1D1B"/>
<path d="M5.58184 14.9468H4.78113V14.1905V13.4343H3.98041V12.7003V11.9441V11.2101V10.4539V9.69763V8.96363H4.78113V8.2074V7.47341H5.58184V6.71718V5.96094H4.78113V6.71718H3.98041V7.47341V8.2074H3.17969V8.96363V9.69763V10.4539V11.2101V11.9441V12.7003V13.4343V14.1905H3.98041V14.9468V15.6808H4.78113V16.437H5.58184V15.6808V14.9468Z" fill="#1D1D1B"/>
<path d="M1.58316 6.71718V5.96094H0.804688V6.71718V7.47341H1.58316V6.71718Z" fill="#1D1D1B"/>
<path d="M6.38666 5.22656H5.58594V5.9828H6.38666V5.22656Z" fill="#1D1D1B"/>
<path d="M2.37884 5.22889V4.47266H1.57812V5.22889V5.96288H2.37884V5.22889Z" fill="#1D1D1B"/>
<path d="M7.98425 5.22851V4.47228H8.78497H9.58569H10.3864H11.1871H11.9878H12.7886V5.22851H13.5893H14.39V4.47228H13.5893V3.73828H12.7886H11.9878H11.1871H10.3864H9.58569H8.78497H7.98425H7.18353V4.47228H6.38281V5.22851H7.18353H7.98425Z" fill="#1D1D1B"/>
<path d="M3.18353 3.73828H2.38281V4.49452H3.18353V3.73828Z" fill="#1D1D1B"/>
<path d="M3.98041 2.98047H3.17969V3.7367H3.98041V2.98047Z" fill="#1D1D1B"/>
<path d="M4.78509 2.22266H3.98438V2.97889H4.78509V2.22266Z" fill="#1D1D1B"/>
<path d="M5.58197 1.48828H4.78125V2.24451H5.58197V1.48828Z" fill="#1D1D1B"/>
<path d="M7.18737 1.49061V0.734375H6.38666H5.58594V1.49061H6.38666H7.18737Z" fill="#1D1D1B"/>
<path d="M8.78894 0.733992H9.58966H10.3904H11.1911H11.9918H12.7925H13.5932V0H12.7925H11.9918H11.1911H10.3904H9.58966H8.78894H7.98822H7.1875V0.733992H7.98822H8.78894Z" fill="#1D1D1B"/>
<path d="M21.6014 5.96094H20.8007V6.71718H20V7.47341V8.2074H20.8007V7.47341H21.6014H22.4022V6.71718V5.96094H21.6014Z" fill="white"/>
<path d="M20.8006 3.73828H19.9999H19.1992H18.3984V4.47228H19.1992V5.22851H19.9999V4.47228H20.8006H21.6013V3.73828H20.8006Z" fill="white"/>
<path d="M11.191 17.1695H10.3902H9.58953H8.78881V16.4355H7.98809H7.18737V15.6793H6.38666V14.9453H5.58594V15.6793V16.4355H6.38666V17.1695H7.18737H7.98809V17.9258H8.78881H9.58953H10.3902H11.191H11.9917H12.7924V17.1695H11.9917H11.191Z" fill="white"/>
<path d="M12.7891 16.4375V17.1715H13.5898H14.3905V16.4375H13.5898H12.7891Z" fill="white"/>
<path d="M15.1913 15.6797H14.3906V16.4359H15.1913V15.6797Z" fill="white"/>
<path d="M5.58197 13.4336H4.78125V14.1898V14.9461H5.58197V14.1898V13.4336Z" fill="white"/>
<path d="M4.78509 11.9434V11.2094V10.4531H3.98438V11.2094V11.9434V12.6996V13.4336H4.78509V12.6996V11.9434Z" fill="white"/>
<path d="M4.78509 8.96484H3.98438V9.72108H4.78509V8.96484Z" fill="white"/>
<path d="M20.0038 19.418H19.2031V20.1742H20.0038V19.418Z" fill="#F2A317"/>
<path d="M20.8007 17.1719H20V17.9281H20.8007V17.1719Z" fill="#F2A317"/>
<path d="M4.78509 9.69922H3.98438V10.4555H4.78509V9.69922Z" fill="#FAF1CE"/>
<path d="M23.2024 7.47266H22.4017H21.6009H20.8002V8.20665V8.96288V9.69687V10.4531V11.2093V11.9433V12.6996V13.4336V14.1898V14.946V15.68H19.9995V16.4362V17.1702H20.8002V17.9265H19.9995V17.1702H19.1988V17.9265H18.3981V18.6827H17.5973V19.4167V20.1729H16.7966H15.9959V20.9069H15.1952V21.6632H14.3945H13.5938V22.4194H14.3945H15.1952H15.9959H16.7966V21.6632H17.5973H18.3981V20.9069H19.1988V20.1729V19.4167H19.9995V20.1729H20.8002V19.4167V18.6827H21.6009V17.9265H22.4017V17.1702V16.4362H23.2024V15.68V14.946H24.0031V14.1898V13.4336V12.6996V11.9433V11.2093V10.4531V9.69687V8.96288V8.20665V7.47266H23.2024Z" fill="#F2A317"/>
<path d="M15.1952 21.6406V21.6629H13.5938V22.4191H16.7966V21.6629H18.3981V21.6406H15.1952Z" fill="#1D1D1B"/>
<path d="M20.0038 5.22656H19.2031V5.9828H20.0038V5.22656Z" fill="white"/>
<path d="M19.1978 7.47527V5.22881H18.3971V4.47258H17.5963V3.71634H16.7956V2.9601H15.9949V2.20387H15.1942V1.44764H13.5927V0.691406H7.187V1.44764H5.58556V2.20387H4.78484V2.9601H3.98412V3.71634H3.1834V4.47258H2.38269V5.9628H1.58197V7.45303H0.78125V14.9264H1.58197V16.4166H2.38269V17.9068H3.1834V18.6631H3.98412V19.4193H4.78484V20.1756H5.58556V20.9318H7.187V21.688H13.5927V20.9318H15.1942V20.1756H15.9949V19.4193H16.7956V18.6631H17.5963V17.9068H18.3971V17.1506H19.1978V15.6604H19.9985V7.43078H19.1978V7.47527ZM3.98412 8.20926V6.71904H4.78484V5.9628H5.58556V5.20656H6.38628V4.45033H7.187V3.6941H13.5927V4.45033H14.3935V5.20656H15.1942V5.9628H15.9949V6.71904H16.7956V8.20926H17.5963V14.1924H16.7956V15.6826H15.9949V16.4389H15.1942V17.1951H14.3935V17.9513H13.5927V18.7076H7.187V17.9513H6.38628V17.1951H5.58556V16.4389H4.78484V15.6826H3.98412V14.1924H3.1834V8.20926H3.98412Z" fill="#FDCD00"/>
<path d="M5.58978 7.47535H4.78906V8.20934V8.96557V9.69957V10.4558V11.212V11.946V12.7023V13.4362H5.58978V14.1925V14.9487H6.3905V15.6827H7.19122V16.4389H7.99193H8.79265V17.1729H9.59337H10.3941H11.1948H11.9955H12.7962V16.4389H13.597H14.3977V15.6827H15.1984V14.9487H15.9991V14.1925V13.4362H16.7998V12.7023V11.946V11.212V10.4558V9.69957V8.96557H15.9991V8.20934V7.47535V6.71912H15.1984V5.96288H14.3977V5.22889H13.597H12.7962V4.47266H11.9955H11.1948H10.3941H9.59337H8.79265H7.99193V5.22889H7.19122H6.3905V5.96288H5.58978V6.71912V7.47535Z" fill="#FDCD00"/>
<path d="M22.4022 5.22851V4.47228V3.73828H21.6014V4.47228H20.8007H20V5.22851V5.9625V6.71874H20.8007V5.9625H21.6014H22.4022V6.71874V7.47497H23.2029V6.71874V5.9625V5.22851H22.4022Z" fill="#F2A317"/>
<path d="M20.8002 2.98045V2.22422H19.9995H19.1988V1.49023H18.3981V0.733992H17.5973H16.7966V0H15.9959H15.1952H14.3945H13.5938V0.733992H14.3945H15.1952V1.49023H15.9959V2.22422H16.7966V2.98045H17.5973V3.73668H18.3981H19.1988H19.9995H20.8002H21.6009V2.98045H20.8002Z" fill="#F2A317"/>
<path d="M22.4022 5.22851V4.47228V3.73828H21.6014V4.47228H20.8007H20V5.22851V5.9625V6.71874H20.8007V5.9625H21.6014H22.4022V6.71874V7.47497H23.2029V6.71874V5.9625V5.22851H22.4022Z" fill="#F2A317"/>
<path d="M22.4023 5.22851V4.47228V3.73828H21.6016V4.47228V5.22851H22.4023V5.9625V6.71874V7.47497H23.203V6.71874V5.9625V5.22851H22.4023Z" fill="#1D1D1B"/>
<path d="M20.0038 19.418H19.2031V20.1742H20.0038V19.418Z" fill="#F2A317"/>
<path d="M20.8007 17.1719H20V17.9281H20.8007V17.1719Z" fill="#F2A317"/>
<path d="M4.78509 9.69922H3.98438V10.4555H4.78509V9.69922Z" fill="#FAF1CE"/>
<path d="M23.2024 7.47266H22.4017H21.6009H20.8002V8.20665V8.96288V9.69687V10.4531V11.2093V11.9433V12.6996V13.4336V14.1898V14.946V15.68H19.9995V16.4362V17.1702H20.8002V17.9265H19.9995V17.1702H19.1988V17.9265H18.3981V18.6827H17.5973V19.4167V20.1729H16.7966H15.9959V20.9069H15.1952V21.6632H14.3945H13.5938V22.4194H14.3945H15.1952H15.9959H16.7966V21.6632H17.5973H18.3981V20.9069H19.1988V20.1729V19.4167H19.9995V20.1729H20.8002V19.4167V18.6827H21.6009V17.9265H22.4017V17.1702V16.4362H23.2024V15.68V14.946H24.0031V14.1898V13.4336V12.6996V11.9433V11.2093V10.4531V9.69687V8.96288V8.20665V7.47266H23.2024Z" fill="#F2A317"/>
<path d="M15.1952 21.6406V21.6629H13.5938V22.4191H16.7966V21.6629H18.3981V21.6406H15.1952Z" fill="#1D1D1B"/>
<path d="M20.0038 5.22656H19.2031V5.9828H20.0038V5.22656Z" fill="white"/>
<path d="M19.1978 7.47527V5.22881H18.3971V4.47258H17.5963V3.71634H16.7956V2.9601H15.9949V2.20387H15.1942V1.44764H13.5927V0.691406H7.187V1.44764H5.58556V2.20387H4.78484V2.9601H3.98412V3.71634H3.1834V4.47258H2.38269V5.9628H1.58197V7.45303H0.78125V14.9264H1.58197V16.4166H2.38269V17.9068H3.1834V18.6631H3.98412V19.4193H4.78484V20.1756H5.58556V20.9318H7.187V21.688H13.5927V20.9318H15.1942V20.1756H15.9949V19.4193H16.7956V18.6631H17.5963V17.9068H18.3971V17.1506H19.1978V15.6604H19.9985V7.43078H19.1978V7.47527ZM3.98412 8.20926V6.71904H4.78484V5.9628H5.58556V5.20656H6.38628V4.45033H7.187V3.6941H13.5927V4.45033H14.3935V5.20656H15.1942V5.9628H15.9949V6.71904H16.7956V8.20926H17.5963V14.1924H16.7956V15.6826H15.9949V16.4389H15.1942V17.1951H14.3935V17.9513H13.5927V18.7076H7.187V17.9513H6.38628V17.1951H5.58556V16.4389H4.78484V15.6826H3.98412V14.1924H3.1834V8.20926H3.98412Z" fill="#FDCD00"/>
<path d="M5.58978 7.47535H4.78906V8.20934V8.96557V9.69957V10.4558V11.212V11.946V12.7023V13.4362H5.58978V14.1925V14.9487H6.3905V15.6827H7.19122V16.4389H7.99193H8.79265V17.1729H9.59337H10.3941H11.1948H11.9955H12.7962V16.4389H13.597H14.3977V15.6827H15.1984V14.9487H15.9991V14.1925V13.4362H16.7998V12.7023V11.946V11.212V10.4558V9.69957V8.96557H15.9991V8.20934V7.47535V6.71912H15.1984V5.96288H14.3977V5.22889H13.597H12.7962V4.47266H11.9955H11.1948H10.3941H9.59337H8.79265H7.99193V5.22889H7.19122H6.3905V5.96288H5.58978V6.71912V7.47535Z" fill="#FDCD00"/>
<path d="M22.4022 5.22851V4.47228V3.73828H21.6014V4.47228H20.8007H20V5.22851V5.9625V6.71874H20.8007V5.9625H21.6014H22.4022V6.71874V7.47497H23.2029V6.71874V5.9625V5.22851H22.4022Z" fill="#F2A317"/>
<path d="M20.8002 2.98045V2.22422H19.9995H19.1988V1.49023H18.3981V0.733992H17.5973H16.7966V0H15.9959H15.1952H14.3945H13.5938V0.733992H14.3945H15.1952V1.49023H15.9959V2.22422H16.7966V2.98045H17.5973V3.73668H18.3981H19.1988H19.9995H20.8002H21.6009V2.98045H20.8002Z" fill="#F2A317"/>
<path d="M22.4022 5.22851V4.47228V3.73828H21.6014V4.47228H20.8007H20V5.22851V5.9625V6.71874H20.8007V5.9625H21.6014H22.4022V6.71874V7.47497H23.2029V6.71874V5.9625V5.22851H22.4022Z" fill="#F2A317"/>
<path d="M22.4023 5.22851V4.47228V3.73828H21.6016V4.47228V5.22851H22.4023V5.9625V6.71874V7.47497H23.203V6.71874V5.9625V5.22851H22.4023Z" fill="#1D1D1B"/>
<path d="M19.1992 1.48828H18.3984V2.24451H19.1992V1.48828Z" fill="#1D1D1B"/>
<path d="M19.1953 2.97889H19.996H20.7967V2.22266H19.996H19.1953V2.97889Z" fill="#1D1D1B"/>
<path d="M17.5898 1.49061H18.3905V0.734375H17.5898H16.7891V1.49061H17.5898Z" fill="#1D1D1B"/>
<path d="M21.5976 2.98047H20.7969V3.7367H21.5976V2.98047Z" fill="#1D1D1B"/>
<path d="M14.3945 0.733992H15.1952H15.9959H16.7966V0H15.9959H15.1952H14.3945H13.5938V0.733992H14.3945Z" fill="#1D1D1B"/>
<path d="M19.996 17.1719H19.1953V17.9281H19.996V17.1719Z" fill="#1D1D1B"/>
<path d="M23.1992 7.47266H22.3984H23.1992V8.20665V8.96288V9.69687V10.4531V11.2093V11.9433V12.6996V13.4336V14.1898V14.946H23.9999V14.1898V13.4336V12.6996V11.9433V11.2093V10.4531V9.69687V8.96288V8.20665V7.47266H23.1992Z" fill="#1D1D1B"/>
<path d="M20 18.6836V19.4176V20.1738H20.8007V19.4176V18.6836H20Z" fill="#1D1D1B"/>
<path d="M21.5976 17.9258H20.7969V18.682H21.5976V17.9258Z" fill="#1D1D1B"/>
<path d="M22.3945 14.9453V15.6793V16.4355H21.5938V17.1695V17.9258H22.3945V17.1695V16.4355H23.1952V15.6793V14.9453H22.3945Z" fill="#1D1D1B"/>
<path d="M16.7929 21.6641H15.9922V22.4203H16.7929V21.6641Z" fill="#1D1D1B"/>
<path d="M19.1992 20.1742V19.418H18.3984V20.1742V20.9082H19.1992V20.1742Z" fill="#1D1D1B"/>
<path d="M18.3945 20.9062H17.5938V21.6625H18.3945V20.9062Z" fill="#1D1D1B"/>
<path d="M13.5932 20.9062V21.6625H12.7925H11.9918H11.1911H10.3904H9.58966H8.78894H7.98822H7.1875V22.4187H7.98822H8.78894H9.58966H10.3904H11.1911H11.9918H12.7925H13.5932V21.6625H14.394H15.1947V20.9062H14.394H13.5932Z" fill="#1D1D1B"/>
<path d="M15.996 20.1719H15.1953V20.9281H15.996V20.1719Z" fill="#1D1D1B"/>
<path d="M16.7929 19.4176H15.9922V20.1738H16.7929H17.5936V19.4176V18.6836H16.7929V19.4176Z" fill="#1D1D1B"/>
<path d="M18.3945 17.9258H17.5938V18.682H18.3945V17.9258Z" fill="#1D1D1B"/>
<path d="M19.1913 17.1719H18.3906V17.9281H19.1913V17.1719Z" fill="#1D1D1B"/>
<path d="M19.1953 16.4359V17.1699H19.996V16.4359V15.6797H19.1953V16.4359Z" fill="#1D1D1B"/>
<path d="M19.9922 8.20703V8.96326V9.69726V10.4535V11.2097V11.9437V12.7V13.4339V14.1902V14.9464V15.6804H20.7929V14.9464V14.1902V13.4339V12.7V11.9437V11.2097V10.4535V9.69726V8.96326V8.20703H19.9922Z" fill="#1D1D1B"/>
<path d="M19.1953 6.71718V7.47341H19.996V6.71718V5.96094H19.1953V6.71718Z" fill="#1D1D1B"/>
<path d="M19.1913 4.47266H18.3906V5.22889H19.1913V4.47266Z" fill="#1D1D1B"/>
<path d="M15.1913 16.4375H14.3906V17.1937H15.1913V16.4375Z" fill="#1D1D1B"/>
<path d="M15.996 8.20897V8.9652H16.7967V9.6992V10.4554V11.2117V11.9457V12.7019V13.4359H15.996V14.1921V14.9484H15.1953V15.6823V16.4386H15.996V15.6823H16.7967V14.9484V14.1921H17.5975V13.4359V12.7019V11.9457V11.2117V10.4554V9.6992V8.9652V8.20897H16.7967V7.47498V6.71875H15.996V7.47498V8.20897Z" fill="#1D1D1B"/>
<path d="M15.996 5.96094H15.1953V6.71718H15.996V5.96094Z" fill="#1D1D1B"/>
<path d="M15.1913 5.22656H14.3906V5.9828H15.1913V5.22656Z" fill="#1D1D1B"/>
<path d="M18.3945 3.73828H17.5938V4.49452H18.3945V3.73828Z" fill="#1D1D1B"/>
<path d="M17.5898 2.98047H16.7891V3.7367H17.5898V2.98047Z" fill="#1D1D1B"/>
<path d="M16.7929 2.22266H15.9922V2.97889H16.7929V2.22266Z" fill="#1D1D1B"/>
<path d="M15.996 1.48828H15.1953V2.24451H15.996V1.48828Z" fill="#1D1D1B"/>
<path d="M13.5938 1.49061H14.3945H15.1952V0.734375H14.3945H13.5938V1.49061Z" fill="#1D1D1B"/>
<path d="M6.38666 20.9062H5.58594V21.6625H6.38666H7.18737V20.9062H6.38666Z" fill="#1D1D1B"/>
<path d="M5.58197 20.1719H4.78125V20.9281H5.58197V20.1719Z" fill="#1D1D1B"/>
<path d="M3.98041 19.4176V18.6836H3.17969V19.4176V20.1738H3.98041H4.78113V19.4176H3.98041Z" fill="#1D1D1B"/>
<path d="M3.18353 17.9258H2.38281V18.682H3.18353V17.9258Z" fill="#1D1D1B"/>
<path d="M7.98425 18.6843H8.78497H9.58569H10.3864H11.1871H11.9878H12.7886H13.5893V17.9281H14.39V17.1719H13.5893H12.7886V17.9281H11.9878H11.1871H10.3864H9.58569H8.78497H7.98425V17.1719H7.18353H6.38281V17.9281H7.18353V18.6843H7.98425Z" fill="#1D1D1B"/>
<path d="M6.38666 16.4375H5.58594V17.1937H6.38666V16.4375Z" fill="#1D1D1B"/>
<path d="M2.37884 16.4375H1.57812V17.1715V17.9277H2.37884V17.1715V16.4375Z" fill="#1D1D1B"/>
<path d="M1.58316 14.9453H0.804688V15.6793V16.4355H1.58316V15.6793V14.9453Z" fill="#1D1D1B"/>
<path d="M0.800718 13.4339V12.7V11.9437V11.2097V10.4535V9.69726V8.96326V8.20703H0V8.96326V9.69726V10.4535V11.2097V11.9437V12.7V13.4339V14.1902H0.800718V13.4339Z" fill="#1D1D1B"/>
<path d="M5.58184 14.9468H4.78113V14.1905V13.4343H3.98041V12.7003V11.9441V11.2101V10.4539V9.69763V8.96363H4.78113V8.2074V7.47341H5.58184V6.71718V5.96094H4.78113V6.71718H3.98041V7.47341V8.2074H3.17969V8.96363V9.69763V10.4539V11.2101V11.9441V12.7003V13.4343V14.1905H3.98041V14.9468V15.6808H4.78113V16.437H5.58184V15.6808V14.9468Z" fill="#1D1D1B"/>
<path d="M1.58316 6.71718V5.96094H0.804688V6.71718V7.47341H1.58316V6.71718Z" fill="#1D1D1B"/>
<path d="M6.38666 5.22656H5.58594V5.9828H6.38666V5.22656Z" fill="#1D1D1B"/>
<path d="M2.37884 5.22889V4.47266H1.57812V5.22889V5.96288H2.37884V5.22889Z" fill="#1D1D1B"/>
<path d="M7.98425 5.22851V4.47228H8.78497H9.58569H10.3864H11.1871H11.9878H12.7886V5.22851H13.5893H14.39V4.47228H13.5893V3.73828H12.7886H11.9878H11.1871H10.3864H9.58569H8.78497H7.98425H7.18353V4.47228H6.38281V5.22851H7.18353H7.98425Z" fill="#1D1D1B"/>
<path d="M3.18353 3.73828H2.38281V4.49452H3.18353V3.73828Z" fill="#1D1D1B"/>
<path d="M3.98041 2.98047H3.17969V3.7367H3.98041V2.98047Z" fill="#1D1D1B"/>
<path d="M4.78509 2.22266H3.98438V2.97889H4.78509V2.22266Z" fill="#1D1D1B"/>
<path d="M5.58197 1.48828H4.78125V2.24451H5.58197V1.48828Z" fill="#1D1D1B"/>
<path d="M7.18737 1.49061V0.734375H6.38666H5.58594V1.49061H6.38666H7.18737Z" fill="#1D1D1B"/>
<path d="M8.78894 0.733992H9.58966H10.3904H11.1911H11.9918H12.7925H13.5932V0H12.7925H11.9918H11.1911H10.3904H9.58966H8.78894H7.98822H7.1875V0.733992H7.98822H8.78894Z" fill="#1D1D1B"/>
<path d="M21.6014 5.96094H20.8007V6.71718H20V7.47341V8.2074H20.8007V7.47341H21.6014H22.4022V6.71718V5.96094H21.6014Z" fill="white"/>
<path d="M20.8006 3.73828H19.9999H19.1992H18.3984V4.47228H19.1992V5.22851H19.9999V4.47228H20.8006H21.6013V3.73828H20.8006Z" fill="white"/>
<path d="M11.191 17.1695H10.3902H9.58953H8.78881V16.4355H7.98809H7.18737V15.6793H6.38666V14.9453H5.58594V15.6793V16.4355H6.38666V17.1695H7.18737H7.98809V17.9258H8.78881H9.58953H10.3902H11.191H11.9917H12.7924V17.1695H11.9917H11.191Z" fill="white"/>
<path d="M12.7891 16.4375V17.1715H13.5898H14.3905V16.4375H13.5898H12.7891Z" fill="white"/>
<path d="M15.1913 15.6797H14.3906V16.4359H15.1913V15.6797Z" fill="white"/>
<path d="M5.58197 13.4336H4.78125V14.1898V14.9461H5.58197V14.1898V13.4336Z" fill="white"/>
<path d="M4.78509 11.9434V11.2094V10.4531H3.98438V11.2094V11.9434V12.6996V13.4336H4.78509V12.6996V11.9434Z" fill="white"/>
<path d="M4.78509 8.96484H3.98438V9.72108H4.78509V8.96484Z" fill="white"/>
</svg>
